<?xml version="1.0" encoding="UTF-8"?>
<svg version="1.1" xmlns="http://www.w3.org/2000/svg" width="145" height="139">
<path d="M0 0 C47.85 0 95.7 0 145 0 C145 45.87 145 91.74 145 139 C97.15 139 49.3 139 0 139 C0 93.13 0 47.26 0 0 Z " fill="#F6F4F7" transform="translate(0,0)"/>
<path d="M0 0 C9.20283973 7.07015918 15.86853705 15.15327738 20.875 25.5625 C21.17365967 26.17561035 21.47231934 26.7887207 21.7800293 27.42041016 C23.8743326 32.00723366 24.5724342 36.0391404 25 41 C21.7 41 18.4 41 15 41 C14.443125 38.89625 14.443125 38.89625 13.875 36.75 C9.30452771 21.6717129 1.86523845 11.48686532 -12 4 C-12.93199219 3.48953125 -13.86398438 2.9790625 -14.82421875 2.453125 C-21.9694074 -0.87195625 -28.378812 -1.4536014 -36.1875 -1.5 C-37.10184814 -1.50636475 -38.01619629 -1.51272949 -38.95825195 -1.51928711 C-52.48309315 -1.26704437 -62.95217026 4.07165825 -72.8125 13.1875 C-80.29234204 21.06876469 -83.53915731 30.6097753 -86 41 C-89.3 41 -92.6 41 -96 41 C-95.06439841 26.49817536 -88.02706534 14.18174249 -77.33569336 4.47631836 C-55.02725414 -14.65983502 -24.3980284 -16.27605315 0 0 Z " fill="#5E655E" transform="translate(109,22)"/>
<path d="M0 0 C4.29 0 8.58 0 13 0 C13.825 1.794375 14.65 3.58875 15.5 5.4375 C20.54438338 15.44376517 26.88688524 22.11422209 37 27 C37.84691406 27.41378906 38.69382813 27.82757813 39.56640625 28.25390625 C51.25211671 33.0246017 66.43477516 33.20750718 78.1875 28.5 C91.73801579 22.16950739 98.75567238 13.20915458 105 0 C109.29 0 113.58 0 118 0 C114.10215074 13.98640029 105.59243152 24.95208522 93.34375 32.69140625 C89.37093467 34.90956148 85.30082822 36.53380856 81 38 C80.16984375 38.30035156 79.3396875 38.60070312 78.484375 38.91015625 C70.35222423 41.52754011 62.42282371 41.32685585 54 41 C52.92105469 40.98066406 51.84210938 40.96132812 50.73046875 40.94140625 C35.11721238 40.2661278 20.49178071 31.21353073 10 20 C5.21166035 13.76255756 2.10552459 7.55511763 0 0 Z " fill="#626862" transform="translate(15,84)"/>
<path d="M0 0 C40.26 0 80.52 0 122 0 C122 2.31 122 4.62 122 7 C81.74 7 41.48 7 0 7 C0 4.69 0 2.38 0 0 Z " fill="#5D645D" transform="translate(13,70)"/>
</svg>
