<?xml version="1.0" encoding="UTF-8"?>
<svg xmlns="http://www.w3.org/2000/svg" width="1200" height="900" viewBox="0 0 1200 900">
<defs>
  <linearGradient id="g-p5" x1="0" y1="0" x2="1" y2="1">
    <stop offset="0%" stop-color="#E8E6DF"/>
    <stop offset="100%" stop-color="#F5F4EF"/>
  </linearGradient>
  <pattern id="grain" patternUnits="userSpaceOnUse" width="120" height="120">
    <path d="M0 20h120M0 55h120M0 90h120" stroke="#3A4A38" stroke-width="0.4" opacity="0.06"/>
    <path d="M18 0v120M52 0v120M88 0v120" stroke="#3A4A38" stroke-width="0.35" opacity="0.05"/>
  </pattern>
</defs>
<rect width="1200" height="900" fill="url(#g-p5)"/>
<rect width="1200" height="900" fill="#F3F1EB"/>
  <rect width="1200" height="900" fill="url(#grain)" opacity="0.4"/>
<g opacity="0.18">
      <line x1="280" y1="900" x2="280" y2="40" stroke="#3A4A38" stroke-width="1.2"/>
      <circle cx="280" cy="100" r="2.4" fill="#3A4A38"/><circle cx="280" cy="180" r="2.4" fill="#3A4A38"/><circle cx="280" cy="270" r="2.4" fill="#3A4A38"/><circle cx="280" cy="360" r="2.4" fill="#3A4A38"/>
    </g>
<g opacity="0.28">
      <line x1="360" y1="900" x2="360" y2="70" stroke="#3A4A38" stroke-width="1.5499999999999998"/>
      <circle cx="360" cy="130" r="2.4" fill="#3A4A38"/><circle cx="360" cy="210" r="2.4" fill="#3A4A38"/><circle cx="360" cy="300" r="2.4" fill="#3A4A38"/><circle cx="360" cy="390" r="2.4" fill="#3A4A38"/>
    </g>
<g opacity="0.38">
      <line x1="440" y1="900" x2="440" y2="100" stroke="#3A4A38" stroke-width="1.9"/>
      <circle cx="440" cy="160" r="2.4" fill="#3A4A38"/><circle cx="440" cy="240" r="2.4" fill="#3A4A38"/><circle cx="440" cy="330" r="2.4" fill="#3A4A38"/><circle cx="440" cy="420" r="2.4" fill="#3A4A38"/>
    </g>
<g opacity="0.28">
    <circle cx="420" cy="360" r="90" fill="none" stroke="#3A4A38" stroke-width="1"/>
    <circle cx="420" cy="360" r="49.50000000000001" fill="none" stroke="#3A4A38" stroke-width="0.8"/>
    <circle cx="420" cy="360" r="19.8" fill="#3A4A38" opacity="0.45"/>
  </g><g transform="translate(816.0000000000001 468) scale(1.4)" opacity="0.22" fill="none" stroke="#3A4A38" stroke-width="1.2">
    <ellipse cx="0" cy="8" rx="28" ry="10"/>
    <path d="M-28 8 Q-26 -6 0 -10 Q26 -6 28 8"/>
    <path d="M-8 -10 V-22 M8 -10 V-18" stroke-width="1"/>
  </g>
<rect x="0" y="844" width="1200" height="56" fill="#F3F1EB" opacity="0.92"/>
  <text x="28" y="876" font-family="Georgia, 'Noto Serif TC', serif" font-size="15" fill="#5A5852">局部細節  ·  竹節、碗盤與纖維的近觀</text>
</svg>